<svg id="Capa_1" data-name="Capa 1" xmlns="http://www.w3.org/2000/svg" viewBox="0 0 110 110"><defs><style>.cls-1{fill:#000;}</style></defs><path class="cls-1" d="M108.47,92.51,109,25.16a8.41,8.41,0,0,0-8.39-8.39H64.44l-8.35-6.68a8.25,8.25,0,0,0-5.24-1.84h-27a8.39,8.39,0,0,0-8.39,8.39V29.56H9.4a8.36,8.36,0,0,0-8.26,9.9L11,94.83a8.4,8.4,0,0,0,8.27,6.92h80.85a8.36,8.36,0,0,0,6.51-3.11A10.09,10.09,0,0,0,108.47,92.51Zm-5,3.53a4.21,4.21,0,0,1-3.3,1.58H19.29a4.27,4.27,0,0,1-4.2-3.52L5.2,38.7a4.23,4.23,0,0,1,4.2-5H31.71a4.28,4.28,0,0,1,2.56.85l7.39,5.54H90.34a4.24,4.24,0,0,1,4.17,3.41l9.81,49A4.24,4.24,0,0,1,103.44,96Zm1.43-22.5L98.7,42.68a8.52,8.52,0,0,0-8.36-6.86H43.08l-6.22-4.66a8.5,8.5,0,0,0-5.15-1.73H19.63V16.64a4.26,4.26,0,0,1,4.26-4.26h27a4.12,4.12,0,0,1,2.66.94L63,20.9h37.62a4.25,4.25,0,0,1,4.26,4.26Z"/><path class="cls-1" d="M65.42,68.85a2.12,2.12,0,0,0-1.51.63l-7,7V53.94a2.14,2.14,0,1,0-4.27,0V76.49l-7-7a2.13,2.13,0,0,0-3,3L53.26,83.14a2.06,2.06,0,0,0,.69.47,2.16,2.16,0,0,0,1.63,0,2.06,2.06,0,0,0,.69-.47L66.93,72.49h0a2.14,2.14,0,0,0-1.51-3.64Z"/></svg>