<svg width="500" height="373" viewBox="0 0 500 373" fill="none" xmlns="http://www.w3.org/2000/svg">
<g clip-path="url(#clip0_9_2)">
<path d="M141.765 186.443L127.519 171.049C125.446 169.385 123.649 167.184 122.268 164.618C118.801 157.996 117.502 153.927 118.109 148.72C122.094 147.726 124.556 147.669 131.57 156.51C137.293 163.722 146.24 176.22 148.329 178.882C150.92 182.14 151.662 183.039 151.114 187.04C150.566 191.042 147.414 201.755 144.553 209.936C141.693 218.116 139.585 221.16 136.396 223.058C133.208 224.956 131.45 224.467 128.927 222.626C126.405 220.786 127.26 218.376 128.933 217.383C130.528 216.473 131.947 215.191 133.122 213.596C133.96 212.294 134.076 211.406 133.067 211.599C131.734 211.853 130.42 211.819 129.783 210.709C128.986 209.317 130.175 209.45 131.528 208.469C133.281 207.216 135.157 206.218 137.127 205.491C139.65 205.048 141.765 186.443 141.765 186.443Z" fill="#E4897B"/>
<path d="M500 327.45H0V327.7H500V327.45Z" fill="#E6E6E6"/>
<path d="M377.66 338.04H343.26V338.29H377.66V338.04Z" fill="#E6E6E6"/>
<path d="M111.04 338.16H91.6802V338.41H111.04V338.16Z" fill="#E6E6E6"/>
<path d="M251 337.58H211.76V337.83H251V337.58Z" fill="#E6E6E6"/>
<path d="M210.76 334.02H193.22V334.27H210.76V334.02Z" fill="#E6E6E6"/>
<path d="M424.56 334.14H371.57V334.39H424.56V334.14Z" fill="#E6E6E6"/>
<path d="M423.03 18.6797H286.75V177.48H423.03V18.6797Z" fill="#E0E0E0"/>
<path d="M426.73 18.6797H288.48V177.48H426.73V18.6797Z" fill="#F5F5F5"/>
<path d="M423.03 177.47H286.75V186.37H423.03V177.47Z" fill="#E0E0E0"/>
<path d="M443.67 177.47H313.52V186.37H443.67V177.47Z" fill="#F5F5F5"/>
<path d="M421.55 170.74V25.4097L293.67 25.4097V170.74H421.55Z" fill="#FAFAFA"/>
<path d="M312.06 170.74L342.5 25.4097H382.4L351.96 170.74H312.06Z" fill="white"/>
<path d="M358.42 170.74L388.85 25.4097H406.87L376.44 170.74H358.42Z" fill="white"/>
<path d="M282.86 18.4498V74.9898H297.86C297.86 74.9898 324.73 57.4598 330.86 21.3898C331.005 20.5307 330.961 19.6504 330.732 18.8099C330.503 17.9695 330.093 17.1891 329.532 16.5229C328.97 15.8568 328.27 15.3209 327.481 14.9525C326.691 14.5841 325.831 14.3921 324.96 14.3898H286.96C286.424 14.3858 285.892 14.4878 285.395 14.69C284.899 14.8921 284.447 15.1904 284.066 15.5677C283.685 15.9449 283.382 16.3938 283.175 16.8884C282.968 17.383 282.861 17.9136 282.86 18.4498Z" fill="#E0E0E0"/>
<path d="M282.86 165.62V79.5498H297.86C297.86 79.5498 306.46 96.9298 315.03 116.91C317.309 122.226 318.234 128.024 317.719 133.786C317.205 139.547 315.269 145.09 312.084 149.918C308.899 154.747 304.566 158.709 299.472 161.449C294.378 164.19 288.684 165.623 282.9 165.62H282.86Z" fill="#E0E0E0"/>
<path d="M297.38 74.9897H283.41C282.582 74.9897 281.91 75.6613 281.91 76.4897V78.0498C281.91 78.8782 282.582 79.5498 283.41 79.5498H297.38C298.209 79.5498 298.88 78.8782 298.88 78.0498V76.4897C298.88 75.6613 298.209 74.9897 297.38 74.9897Z" fill="#F5F5F5"/>
<path d="M431 18.4499V74.9899H416C416 74.9899 389.12 57.4598 383 21.3898C382.855 20.5317 382.898 19.6522 383.127 18.8124C383.356 17.9727 383.765 17.1928 384.325 16.5268C384.885 15.8608 385.584 15.3247 386.372 14.9557C387.16 14.5867 388.02 14.3936 388.89 14.3898H426.89C427.427 14.3846 427.96 14.4856 428.457 14.6872C428.955 14.8887 429.408 15.1868 429.79 15.5642C430.172 15.9416 430.476 16.3908 430.683 16.8861C430.891 17.3814 430.999 17.9128 431 18.4499Z" fill="#E0E0E0"/>
<path d="M431.1 165.64V79.5698H416.1C416.1 79.5698 407.5 96.9398 398.92 116.93C396.656 122.247 395.744 128.043 396.266 133.799C396.788 139.555 398.726 145.092 401.909 149.916C405.092 154.74 409.42 158.7 414.507 161.444C419.594 164.188 425.281 165.629 431.06 165.64H431.1Z" fill="#E0E0E0"/>
<path d="M416.45 79.5498H430.42C431.248 79.5498 431.92 78.8782 431.92 78.0498V76.4898C431.92 75.6614 431.248 74.9898 430.42 74.9898H416.45C415.621 74.9898 414.95 75.6614 414.95 76.4898V78.0498C414.95 78.8782 415.621 79.5498 416.45 79.5498Z" fill="#F5F5F5"/>
<path d="M200.89 88.6396H140.86V154.35H200.89V88.6396Z" fill="#E0E0E0"/>
<path d="M209.33 88.6396H144.11V154.35H209.33V88.6396Z" fill="#FAFAFA"/>
<path d="M202.6 147.63V95.3696H150.83V147.63H202.6Z" fill="white"/>
<path d="M163 121.5C163.003 118.226 164.305 115.087 166.621 112.773C168.937 110.459 172.076 109.16 175.35 109.16H178.13C181.402 109.162 184.539 110.463 186.853 112.777C189.166 115.091 190.467 118.228 190.47 121.5C190.47 123.12 190.151 124.725 189.531 126.222C188.911 127.719 188.002 129.079 186.856 130.225C185.71 131.371 184.349 132.28 182.852 132.9C181.355 133.52 179.751 133.84 178.13 133.84H175.35C173.729 133.841 172.123 133.523 170.625 132.903C169.126 132.284 167.765 131.375 166.618 130.229C165.471 129.083 164.561 127.722 163.94 126.224C163.32 124.726 163 123.121 163 121.5Z" fill="#F5F5F5"/>
<path d="M92.2402 104.32C83.8859 104.32 75.8738 101.001 69.9664 95.0937C64.059 89.1863 60.7402 81.1741 60.7402 72.8198C60.7402 64.4655 64.059 56.4534 69.9664 50.546C75.8738 44.6386 83.8859 41.3198 92.2402 41.3198H97.9302V104.32H92.2402Z" fill="#E0E0E0"/>
<path d="M97.9302 104.32C115.316 104.32 129.41 90.2258 129.41 72.8399C129.41 55.4539 115.316 41.3599 97.9302 41.3599C80.5443 41.3599 66.4502 55.4539 66.4502 72.8399C66.4502 90.2258 80.5443 104.32 97.9302 104.32Z" fill="#FAFAFA"/>
<path d="M97.9299 96.5796C111.041 96.5796 121.67 85.9508 121.67 72.8396C121.67 59.7284 111.041 49.0996 97.9299 49.0996C84.8187 49.0996 74.1899 59.7284 74.1899 72.8396C74.1899 85.9508 84.8187 96.5796 97.9299 96.5796Z" fill="white"/>
<path d="M107.71 81.7196L96.0498 73.5796L99.7498 55.5996L103.05 56.2796L99.7998 72.0896L109.64 78.9496L107.71 81.7196Z" fill="#E0E0E0"/>
<path d="M352.34 215.05H309.43V330.99H352.34V215.05Z" fill="#E0E0E0"/>
<path d="M340.88 330.99H352.34V311.79H328.87L340.88 330.99Z" fill="#FAFAFA"/>
<path d="M95.0902 215.05H52.1802V330.99H95.0902V215.05Z" fill="#E0E0E0"/>
<path d="M352.35 215.05H85.0898V324.38H352.35V215.05Z" fill="#FAFAFA"/>
<path d="M96.5499 330.99H85.0898V311.79H108.56L96.5499 330.99Z" fill="#FAFAFA"/>
<path d="M343.46 224.45H93.98V264.69H343.46V224.45Z" fill="#F0F0F0"/>
<path d="M343.46 274.42H93.98V314.66H343.46V274.42Z" fill="#F0F0F0"/>
<path d="M306.88 224.45H93.98V264.69H306.88V224.45Z" fill="#E0E0E0"/>
<path d="M159.54 229.88H146.59C146.59 229.88 148.84 237.65 148.84 242.22C148.84 246.79 138.99 264.7 153.07 264.7C167.15 264.7 157.29 246.79 157.29 242.22C157.29 237.65 159.54 229.88 159.54 229.88Z" fill="#FAFAFA"/>
<path d="M108.56 243.38V250.45C108.56 258.29 116.14 264.7 125.4 264.7H133.75C143.01 264.7 150.59 258.29 150.59 250.45V243.38H108.56Z" fill="#F0F0F0"/>
<path d="M306.88 274.42H93.98V314.66H306.88V274.42Z" fill="#E0E0E0"/>
<path d="M213.55 313.93H233.49V280.72H213.55V313.93Z" fill="white"/>
<path d="M230.38 314.45H231.74V281.24H230.38V314.45Z" fill="#E6E6E6"/>
<path d="M231.84 314.7H235.32C235.585 314.7 235.8 314.485 235.8 314.22V281.46C235.8 281.195 235.585 280.98 235.32 280.98H231.84C231.575 280.98 231.36 281.195 231.36 281.46V314.22C231.36 314.485 231.575 314.7 231.84 314.7Z" fill="#EBEBEB"/>
<path d="M231.36 296.56H235.8V288.68H231.36V296.56Z" fill="white"/>
<path d="M231.36 303.85H235.8V298.99H231.36V303.85Z" fill="white"/>
<path d="M212.53 314.7H230.5C230.765 314.7 230.98 314.485 230.98 314.22V281.46C230.98 281.195 230.765 280.98 230.5 280.98H212.53C212.265 280.98 212.05 281.195 212.05 281.46V314.22C212.05 314.485 212.265 314.7 212.53 314.7Z" fill="#EBEBEB"/>
<path d="M203.82 313.85H225.82V277.21H203.82V313.85Z" fill="white"/>
<path d="M222.41 314.42H223.9V277.78H222.41V314.42Z" fill="#E6E6E6"/>
<path d="M224.01 314.7H227.85C228.143 314.7 228.38 314.463 228.38 314.17V278.03C228.38 277.737 228.143 277.5 227.85 277.5H224.01C223.717 277.5 223.48 277.737 223.48 278.03V314.17C223.48 314.463 223.717 314.7 224.01 314.7Z" fill="#F0F0F0"/>
<path d="M223.48 290.62H228.38V289.35H223.48V290.62Z" fill="white"/>
<path d="M223.48 294.3H228.38V293.03H223.48V294.3Z" fill="white"/>
<path d="M223.48 297.97H228.38V296.7H223.48V297.97Z" fill="white"/>
<path d="M202.71 314.7H222.53C222.823 314.7 223.06 314.463 223.06 314.17V278.03C223.06 277.737 222.823 277.5 222.53 277.5H202.71C202.417 277.5 202.18 277.737 202.18 278.03V314.17C202.18 314.463 202.417 314.7 202.71 314.7Z" fill="#F0F0F0"/>
<path d="M176.72 301.94C176.722 303.055 176.393 304.147 175.774 305.076C175.156 306.004 174.276 306.729 173.245 307.157C172.215 307.586 171.08 307.699 169.986 307.482C168.891 307.266 167.885 306.73 167.095 305.941C166.306 305.153 165.767 304.148 165.549 303.054C165.331 301.959 165.442 300.825 165.868 299.794C166.295 298.762 167.018 297.881 167.945 297.261C168.873 296.641 169.964 296.31 171.08 296.31C172.574 296.31 174.007 296.902 175.064 297.958C176.122 299.013 176.717 300.445 176.72 301.94Z" fill="#FAFAFA"/>
<path d="M167.11 304.63C167.11 305.502 166.851 306.355 166.367 307.08C165.882 307.805 165.193 308.37 164.388 308.704C163.582 309.038 162.695 309.125 161.84 308.955C160.984 308.785 160.198 308.365 159.582 307.748C158.965 307.131 158.545 306.346 158.375 305.49C158.205 304.635 158.292 303.748 158.626 302.942C158.96 302.136 159.525 301.447 160.25 300.963C160.975 300.478 161.828 300.22 162.7 300.22C163.869 300.222 164.989 300.688 165.815 301.514C166.642 302.341 167.107 303.461 167.11 304.63Z" fill="#FAFAFA"/>
<path d="M186.37 304.63C186.37 305.746 186.039 306.836 185.419 307.764C184.8 308.691 183.919 309.414 182.888 309.841C181.858 310.268 180.724 310.379 179.63 310.162C178.535 309.944 177.531 309.407 176.742 308.618C175.953 307.83 175.416 306.825 175.198 305.731C174.981 304.636 175.092 303.502 175.519 302.472C175.946 301.441 176.669 300.56 177.596 299.941C178.524 299.321 179.614 298.99 180.73 298.99C182.225 298.993 183.658 299.588 184.715 300.645C185.772 301.702 186.367 303.135 186.37 304.63Z" fill="#FAFAFA"/>
<path d="M195.61 302.98C195.61 304.095 195.279 305.186 194.66 306.113C194.04 307.041 193.159 307.764 192.128 308.191C191.098 308.617 189.964 308.729 188.87 308.511C187.776 308.294 186.771 307.757 185.982 306.968C185.193 306.179 184.656 305.174 184.438 304.08C184.221 302.986 184.333 301.852 184.759 300.822C185.186 299.791 185.909 298.91 186.837 298.29C187.764 297.671 188.855 297.34 189.97 297.34C191.466 297.34 192.9 297.934 193.958 298.992C195.016 300.049 195.61 301.484 195.61 302.98Z" fill="#FAFAFA"/>
<path d="M147.18 303.71C147.18 303.71 147.95 314.71 177.62 314.71C207.29 314.71 208.06 303.71 208.06 303.71H147.18Z" fill="#F5F5F5"/>
<path d="M230.38 253.7C230.38 253.7 231.61 264.7 278.63 264.7C325.65 264.7 326.87 253.7 326.87 253.7H230.38Z" fill="white"/>
<path d="M250 372.61C357.082 372.61 443.89 367.542 443.89 361.29C443.89 355.038 357.082 349.97 250 349.97C142.917 349.97 56.1099 355.038 56.1099 361.29C56.1099 367.542 142.917 372.61 250 372.61Z" fill="#F5F5F5"/>
<path d="M103.26 334.021H102.26V345.311H103.26V334.021Z" fill="#852427"/>
<path opacity="0.1" d="M103.26 334.021H102.26V345.311H103.26V334.021Z" fill="black"/>
<path d="M397.74 244.57H396.74V260.04H397.74V244.57Z" fill="#852427"/>
<path d="M397.74 268.16H396.74V276.55H397.74V268.16Z" fill="#852427"/>
<path opacity="0.1" d="M397.74 268.16H396.74V276.55H397.74V268.16Z" fill="black"/>
<path d="M379.2 177.49H120.81C112.498 177.49 105.76 184.228 105.76 192.54V343.79C105.76 352.102 112.498 358.84 120.81 358.84H379.2C387.512 358.84 394.25 352.102 394.25 343.79V192.54C394.25 184.228 387.512 177.49 379.2 177.49Z" fill="#852427"/>
<path opacity="0.2" d="M379.2 177.49H120.81C112.498 177.49 105.76 184.228 105.76 192.54V343.79C105.76 352.102 112.498 358.84 120.81 358.84H379.2C387.512 358.84 394.25 352.102 394.25 343.79V192.54C394.25 184.228 387.512 177.49 379.2 177.49Z" fill="black"/>
<path d="M196.596 215H130.615C125.305 215 121 221.143 121 228.722V290.278C121 297.857 125.305 304 130.615 304H196.596C201.906 304 206.21 297.857 206.21 290.278V228.722C206.21 221.143 201.906 215 196.596 215Z" fill="#852427"/>
<path opacity="0.3" d="M196.596 215H130.615C125.305 215 121 221.143 121 228.722V290.278C121 297.857 125.305 304 130.615 304H196.596C201.906 304 206.21 297.857 206.21 290.278V228.722C206.21 221.143 201.906 215 196.596 215Z" fill="white"/>
<path d="M379.64 220H222.36C217.191 220 213 222.053 213 224.585C213 227.117 217.191 229.17 222.36 229.17H379.64C384.809 229.17 389 227.117 389 224.585C389 222.053 384.809 220 379.64 220Z" fill="#852427"/>
<path opacity="0.3" d="M379.64 220H222.36C217.191 220 213 222.053 213 224.585C213 227.117 217.191 229.17 222.36 229.17H379.64C384.809 229.17 389 227.117 389 224.585C389 222.053 384.809 220 379.64 220Z" fill="white"/>
<path d="M379.64 274H222.36C217.191 274 213 276.053 213 278.585C213 281.117 217.191 283.17 222.36 283.17H379.64C384.809 283.17 389 281.117 389 278.585C389 276.053 384.809 274 379.64 274Z" fill="#852427"/>
<path opacity="0.3" d="M379.64 274H222.36C217.191 274 213 276.053 213 278.585C213 281.117 217.191 283.17 222.36 283.17H379.64C384.809 283.17 389 281.117 389 278.585C389 276.053 384.809 274 379.64 274Z" fill="white"/>
<path d="M295.72 237H218.59C216.055 237 214 239.053 214 241.585C214 244.117 216.055 246.17 218.59 246.17H295.72C298.255 246.17 300.31 244.117 300.31 241.585C300.31 239.053 298.255 237 295.72 237Z" fill="#852427"/>
<path opacity="0.3" d="M295.72 237H218.59C216.055 237 214 239.053 214 241.585C214 244.117 216.055 246.17 218.59 246.17H295.72C298.255 246.17 300.31 244.117 300.31 241.585C300.31 239.053 298.255 237 295.72 237Z" fill="white"/>
<path d="M385.677 237H324.633C322.626 237 321 239.053 321 241.585C321 244.117 322.626 246.17 324.633 246.17H385.677C387.684 246.17 389.31 244.117 389.31 241.585C389.31 239.053 387.684 237 385.677 237Z" fill="#852427"/>
<path opacity="0.3" d="M385.677 237H324.633C322.626 237 321 239.053 321 241.585C321 244.117 322.626 246.17 324.633 246.17H385.677C387.684 246.17 389.31 244.117 389.31 241.585C389.31 239.053 387.684 237 385.677 237Z" fill="white"/>
<path d="M295.72 257H218.59C216.055 257 214 259.053 214 261.585C214 264.117 216.055 266.17 218.59 266.17H295.72C298.255 266.17 300.31 264.117 300.31 261.585C300.31 259.053 298.255 257 295.72 257Z" fill="#852427"/>
<path opacity="0.3" d="M295.72 257H218.59C216.055 257 214 259.053 214 261.585C214 264.117 216.055 266.17 218.59 266.17H295.72C298.255 266.17 300.31 264.117 300.31 261.585C300.31 259.053 298.255 257 295.72 257Z" fill="white"/>
<path d="M385.677 257H324.633C322.626 257 321 259.053 321 261.585C321 264.117 322.626 266.17 324.633 266.17H385.677C387.684 266.17 389.31 264.117 389.31 261.585C389.31 259.053 387.684 257 385.677 257Z" fill="#852427"/>
<path opacity="0.3" d="M385.677 257H324.633C322.626 257 321 259.053 321 261.585C321 264.117 322.626 266.17 324.633 266.17H385.677C387.684 266.17 389.31 264.117 389.31 261.585C389.31 259.053 387.684 257 385.677 257Z" fill="white"/>
<path d="M334.271 307H237.729C227.385 307 219 312.035 219 318.245V328.755C219 334.965 227.385 340 237.729 340H334.271C344.615 340 353 334.965 353 328.755V318.245C353 312.035 344.615 307 334.271 307Z" fill="#852427"/>
<path opacity="0.3" d="M334.271 307H237.729C227.385 307 219 312.035 219 318.245V328.755C219 334.965 227.385 340 237.729 340H334.271C344.615 340 353 334.965 353 328.755V318.245C353 312.035 344.615 307 334.271 307Z" fill="white"/>
<path d="M167.368 330.11C166.345 330.994 164.941 331.656 163.266 332.046C163.109 332.099 162.924 332.121 162.726 332.111C162.424 332.071 162.365 331.902 162.374 331.695C162.423 331.36 162.539 331.041 162.721 330.745C163.008 330.134 163.326 329.536 163.66 328.942C164.212 327.99 164.785 327.045 165.379 326.107C165.797 325.753 166.199 325.39 166.588 325.014C167.718 323.929 168.722 322.784 169.595 321.584C170.455 320.404 171.304 319.096 171.237 317.64C171.23 317.498 170.961 317.322 170.814 317.44C169.55 318.449 168.84 319.876 168.02 321.132L165.159 325.5C165.093 325.598 165.035 325.693 164.969 325.791C164.25 326.415 163.49 327.008 162.686 327.568C162.216 327.899 161.731 328.217 161.234 328.521C160.79 328.83 160.298 329.109 159.76 329.354C159.041 329.633 158.281 329.299 158.052 328.659C158.004 328.522 157.982 328.386 157.984 328.254C158.639 328.055 159.212 327.78 159.68 327.441C160.245 327.072 160.75 326.667 161.189 326.228C161.651 325.756 162.039 325.25 162.351 324.715C162.549 324.361 162.933 323.839 162.623 323.423C162.313 323.007 161.686 323.154 161.309 323.379C160.707 323.756 160.166 324.171 159.692 324.62C158.639 325.53 157.924 326.605 157.585 327.791C157.57 327.835 157.559 327.88 157.551 327.927C157.481 327.939 157.417 327.958 157.338 327.968C157.151 328.011 156.933 328.013 156.712 327.974C156.491 327.935 156.276 327.857 156.096 327.749C155.916 327.642 155.777 327.51 155.699 327.371C155.621 327.231 155.606 327.09 155.656 326.966C155.702 326.783 155.347 326.615 155.18 326.743C154.611 327.199 154.404 327.894 153.758 328.286C153.461 328.461 152.951 328.643 152.604 328.377C152.515 328.302 152.45 328.218 152.414 328.133C152.378 328.048 152.372 327.964 152.397 327.887C152.466 327.815 152.542 327.749 152.602 327.674C152.75 327.522 152.376 327.294 152.203 327.38C152.045 327.454 151.938 327.563 151.897 327.693C151.547 328.049 151.182 328.396 150.797 328.723C150.788 328.267 150.896 327.832 151.118 327.434C151.208 327.277 150.751 327.043 150.65 327.212C150.311 327.733 149.905 328.228 149.437 328.693C149.201 328.928 148.943 329.153 148.67 329.369C148.406 329.631 148.065 329.854 147.661 330.029C147.479 330.083 147.227 330.115 147.046 329.995C146.864 329.875 146.905 329.576 146.943 329.392C147.019 329.087 147.096 328.777 147.216 328.463C147.443 327.88 147.755 327.323 148.147 326.797C148.276 326.616 147.824 326.363 147.671 326.539C146.976 327.358 146.178 328.129 145.281 328.848C144.849 329.193 144.402 329.53 143.922 329.834C143.7 329.978 143.135 330.28 142.756 330.176C142.857 330.111 142.949 330.045 143.049 329.985C144.147 329.244 145.13 328.435 145.989 327.565C146.879 326.694 147.559 325.725 148.016 324.682C148.097 324.548 148.117 324.394 148.074 324.233C148.032 324.073 147.928 323.912 147.772 323.765C148.092 323.26 148.254 322.701 148.252 322.111C148.186 321.054 147.045 320.385 145.782 320.31C144.269 320.216 142.911 320.79 141.708 321.351C139.304 322.478 137.276 323.874 135.689 325.495C134.858 326.341 134.135 327.237 133.526 328.178C132.949 329.071 132.194 330.138 132.526 331.242C133.306 333.867 137.588 332.698 139.385 331.956C140.453 331.495 141.431 330.966 142.31 330.374C142.518 330.466 142.749 330.521 142.974 330.533C143.199 330.544 143.407 330.511 143.568 330.438C144.167 330.2 144.678 329.895 145.086 329.531C145.635 329.12 146.141 328.683 146.642 328.23C146.591 328.432 146.541 328.634 146.491 328.836C146.337 329.159 146.319 329.521 146.438 329.893C146.496 330.003 146.602 330.108 146.741 330.194C146.88 330.28 147.047 330.344 147.22 330.377C148.082 330.542 148.782 329.865 149.281 329.456C149.665 329.14 150.011 328.804 150.317 328.449C150.318 328.673 150.349 328.9 150.408 329.13C150.411 329.161 150.429 329.193 150.46 329.222C150.491 329.251 150.533 329.275 150.581 329.291C150.628 329.308 150.679 329.315 150.726 329.313C150.774 329.31 150.815 329.298 150.844 329.278C151.269 328.949 151.667 328.605 152.038 328.246C152.12 328.384 152.26 328.515 152.44 328.621C152.62 328.728 152.832 328.807 153.052 328.847C154.262 328.97 154.713 328.041 155.278 327.365C155.391 327.581 155.594 327.787 155.864 327.959C156.107 328.108 156.395 328.22 156.696 328.281C156.997 328.343 157.299 328.353 157.566 328.309C157.598 328.64 157.786 328.983 158.104 329.295C158.28 329.482 158.55 329.636 158.857 329.725C159.164 329.813 159.483 329.83 159.749 329.77C160.48 329.536 161.112 329.216 161.623 328.822C162.241 328.439 162.848 328.037 163.433 327.62L164.097 327.123C163.586 327.917 163.099 328.722 162.65 329.542C162.462 329.888 162.282 330.237 162.117 330.595C161.951 330.882 161.841 331.189 161.788 331.509C161.755 332.048 162.239 332.473 162.939 332.478C163.394 332.453 163.817 332.373 164.187 332.241C164.674 332.107 165.132 331.945 165.557 331.756C166.434 331.36 167.2 330.882 167.836 330.332C168.017 330.212 167.551 329.952 167.368 330.11ZM168.324 321.571C168.787 320.865 169.234 320.154 169.696 319.452C169.993 318.994 170.339 318.554 170.733 318.137C170.566 318.989 170.206 319.792 169.665 320.526C169.082 321.376 168.396 322.232 167.74 323.035C167.34 323.488 166.927 323.928 166.498 324.359C167.109 323.435 167.722 322.497 168.327 321.562L168.324 321.571ZM140.548 330.876C139.566 331.431 138.43 331.877 137.172 332.201C136.603 332.339 135.992 332.427 135.351 332.464C134.735 332.5 134.075 332.475 133.605 332.059C132.699 331.26 133.096 330.173 133.52 329.387C133.964 328.577 134.49 327.797 135.098 327.051C136.275 325.588 137.766 324.266 139.539 323.112C140.41 322.546 141.357 322.028 142.373 321.562C143.456 321.075 144.725 320.554 146.091 320.726C148.038 320.972 147.829 322.319 147.127 323.544C146.516 323.473 145.941 323.54 145.502 323.732C144.266 324.291 143.334 325.065 142.779 325.992C142.571 326.282 142.394 326.584 142.249 326.896C141.73 326.966 141.155 326.939 140.581 326.819C139.747 326.611 140.071 325.82 140.268 325.401C140.486 324.943 140.807 324.521 141.223 324.144C141.33 324.052 141.045 323.806 140.929 323.902C140.438 324.312 140.058 324.779 139.798 325.289C139.503 325.694 139.484 326.193 139.743 326.695C140.088 327.139 140.815 327.236 141.386 327.279C141.616 327.292 141.844 327.295 142.067 327.289C141.847 327.851 141.741 328.445 141.752 329.059C141.737 329.376 141.805 329.706 141.956 330.036C141.513 330.324 141.03 330.602 140.551 330.866L140.548 330.876ZM146.9 323.911C146.55 324.46 146.114 324.974 145.597 325.449C144.956 326.052 144.053 326.509 142.961 326.785C143.334 326.122 143.843 325.51 144.478 324.961C144.849 324.614 145.324 324.322 145.884 324.096C146.141 323.991 146.444 323.928 146.774 323.91L146.9 323.911ZM142.372 329.756C142.342 329.604 142.342 329.435 142.329 329.317C142.312 329.069 142.32 328.825 142.351 328.586C142.393 328.115 142.506 327.66 142.69 327.225C142.971 327.188 143.241 327.135 143.498 327.068C144.894 326.639 145.992 325.951 146.686 325.073C146.932 324.801 147.186 324.491 147.411 324.163C147.404 324.191 147.397 324.219 147.387 324.262C147.375 324.376 147.347 324.488 147.304 324.595C146.886 325.462 146.318 326.279 145.608 327.031C144.692 328.027 143.608 328.942 142.369 329.766L142.372 329.756ZM158.435 326.887C158.919 326.007 159.602 325.201 160.467 324.489C160.848 324.123 161.316 323.803 161.86 323.536C161.908 323.513 162.175 323.425 162.237 323.481C162.299 323.536 162.249 323.638 162.242 323.666C162.233 323.783 162.205 323.897 162.157 324.004C162.041 324.244 161.907 324.479 161.753 324.71C161.175 325.633 160.339 326.452 159.275 327.136C158.922 327.378 158.521 327.59 158.08 327.77C158.161 327.465 158.28 327.17 158.435 326.887ZM185.158 328.742L184.92 328.648C185.166 327.932 185.357 327.198 185.513 326.47C185.825 325.053 186.014 323.65 186.093 322.216C186.128 322.075 186.108 321.92 186.103 321.77C186.328 321.377 186.536 320.981 186.722 320.574C187.072 319.779 187.428 318.757 186.518 318.007C186.399 317.908 186.184 317.859 186.116 317.997C185.724 318.917 185.565 319.905 185.646 320.928C185.607 321.088 185.637 321.27 185.633 321.423C185.283 322.055 184.877 322.667 184.416 323.257C183.836 324.014 183.167 324.732 182.412 325.407C182.041 325.743 181.648 326.069 181.241 326.381C180.87 326.739 180.296 326.982 179.599 327.077C179.51 326.881 179.497 326.686 179.563 326.511C179.607 326.337 179.254 326.125 179.126 326.302C179.098 326.344 179.065 326.384 179.028 326.422C179.209 325.969 179.413 325.522 179.649 325.082C179.728 324.937 179.339 324.701 179.227 324.847C178.878 325.325 178.445 325.768 177.936 326.169C177.67 326.379 177.379 326.575 177.064 326.754C176.886 326.859 176.494 327.11 176.242 327.007C175.658 326.812 176.441 325.563 176.663 325.319C176.684 325.235 176.775 325.173 176.836 325.098C177.239 324.765 177.623 324.413 177.945 324.035C178.09 323.892 177.739 323.64 177.574 323.763C177.276 323.984 177.008 324.221 176.772 324.474C175.834 325.279 174.768 326.013 173.584 326.669C172.871 327.059 171.901 327.699 170.918 327.548C170.35 327.456 170.24 327.12 170.317 326.741C171.452 326.357 172.473 325.874 173.359 325.302C174.014 324.878 177.301 322.454 174.933 322.003C173.902 321.806 173.071 322.431 172.471 322.944C171.721 323.579 171.095 324.277 170.601 325.028C170.368 325.388 170.148 325.762 169.976 326.148C169.934 326.263 169.905 326.382 169.887 326.504C169.04 326.785 168.124 326.999 167.154 327.143C166.945 327.17 167.176 327.462 167.359 327.438C168.231 327.318 169.062 327.143 169.843 326.917C169.849 327.029 169.88 327.144 169.935 327.258C170.348 328.039 171.586 328.014 172.337 327.777C173.495 327.347 174.52 326.808 175.387 326.172C175.559 326.055 175.732 325.939 175.901 325.802C175.673 326.243 175.466 326.869 175.994 327.19C176.521 327.511 177.353 327.12 177.768 326.84C178.077 326.643 178.361 326.431 178.618 326.205C178.578 326.369 178.497 326.524 178.454 326.662C178.411 326.801 178.59 326.96 178.757 326.937C178.905 326.913 179.04 326.873 179.158 326.818C179.185 326.954 179.241 327.092 179.325 327.228C179.349 327.263 179.387 327.295 179.434 327.321C179.482 327.347 179.537 327.366 179.593 327.375C180.993 327.475 182.017 326.45 182.825 325.745C183.695 324.99 184.461 324.182 185.116 323.327C185.294 323.087 185.473 322.843 185.636 322.595C185.585 323.205 185.518 323.811 185.42 324.409C185.237 325.778 184.923 327.118 184.478 328.423C183.349 328.156 182.203 328.107 181.205 328.285C179.771 328.447 178.452 328.771 177.304 329.245C176.177 329.729 175.476 330.507 175.331 331.438C175.21 332.33 175.723 333.25 176.809 333.734C179.084 334.76 181.576 333.429 182.858 332.179C183.802 331.195 184.482 330.094 184.88 328.907C184.969 328.924 185.056 328.946 185.143 328.973C185.392 329.189 185.468 328.884 185.154 328.756L185.158 328.742ZM170.907 325.528C171.28 324.924 171.736 324.351 172.27 323.815C172.728 323.231 173.423 322.757 174.303 322.429C174.475 322.383 174.926 322.301 175.091 322.417C175.256 322.532 175.251 322.825 175.152 323.019C174.97 323.349 174.726 323.655 174.426 323.934C173.877 324.456 173.236 324.93 172.512 325.35C171.889 325.72 171.206 326.05 170.469 326.335C170.602 326.005 170.794 325.709 170.903 325.542L170.907 325.528ZM186.105 320.545C186.084 319.83 186.2 319.138 186.45 318.484C186.804 319.13 186.424 319.942 186.101 320.559L186.105 320.545ZM183.487 330.433C182.579 331.945 180.984 333.535 178.678 333.717C178.422 333.758 178.139 333.758 177.851 333.716C177.563 333.674 177.278 333.591 177.017 333.475C176.756 333.358 176.527 333.211 176.348 333.044C176.168 332.877 176.043 332.695 175.983 332.512C175.831 332.04 175.836 331.579 175.998 331.158C176.16 330.737 176.474 330.366 176.921 330.071C177.977 329.44 179.322 329.016 180.849 328.834C181.875 328.603 183.07 328.595 184.28 328.812C184.063 329.373 183.797 329.918 183.484 330.447L183.487 330.433Z" fill="#E0E0E0"/>
<path d="M106 187C106 181.477 110.477 177 116 177H384C389.523 177 394 181.477 394 187V197H106V187Z" fill="#852427"/>
<path d="M345.96 112.43C343.59 119.12 340.96 125.59 338.17 132.06C335.346 138.639 332.106 145.032 328.47 151.2C327.98 151.99 327.47 152.78 326.94 153.57L326.55 154.16L326.02 154.89C325.66 155.35 325.32 155.75 325.02 156.14C323.76 157.545 322.425 158.88 321.02 160.14C318.35 162.61 315.63 164.85 312.88 167.06C307.36 171.44 301.72 175.54 295.88 179.43L292.39 175.1L307.09 160.61C309.52 158.2 311.93 155.77 314.18 153.34C315.29 152.13 316.37 150.89 317.26 149.75C317.48 149.47 317.67 149.19 317.84 148.95L318.05 148.61L318.34 148.09C318.73 147.4 319.14 146.73 319.52 146.02C322.58 140.27 325.28 134.02 327.88 127.68C330.48 121.34 332.98 114.95 335.38 108.61L345.96 112.43Z" fill="#E4897B"/>
<path d="M348.77 107.61C351.04 114.25 337.7 133.78 337.7 133.78L324.96 126.69C327.131 120.596 329.696 114.65 332.64 108.89C337.1 100.45 346.28 100.32 348.77 107.61Z" fill="#852427"/>
<path opacity="0.7" d="M348.77 107.61C351.04 114.25 337.7 133.78 337.7 133.78L324.96 126.69C327.131 120.596 329.696 114.65 332.64 108.89C337.1 100.45 346.28 100.32 348.77 107.61Z" fill="white"/>
<path opacity="0.31" d="M348.96 108.44C346.1 107.07 342.81 108.22 339.34 113.7C335.87 119.18 332.92 128.33 332.6 130.94L337.71 133.77C337.71 133.77 350.02 115.73 348.96 108.44Z" fill="#852427"/>
<path d="M340.14 102.53C340.14 102.53 330.62 124.92 337.48 166.61H377.13C377.62 160.52 374.82 130.83 381.69 102.15C377.325 101.3 372.909 100.739 368.47 100.47C362.858 100.15 357.232 100.15 351.62 100.47C347.746 100.863 343.909 101.552 340.14 102.53Z" fill="#852427"/>
<path opacity="0.7" d="M340.14 102.53C340.14 102.53 330.62 124.92 337.48 166.61H377.13C377.62 160.52 374.82 130.83 381.69 102.15C377.325 101.3 372.909 100.739 368.47 100.47C362.858 100.15 357.232 100.15 351.62 100.47C347.746 100.863 343.909 101.552 340.14 102.53Z" fill="white"/>
<path d="M391.17 344.23L385.3 349.49L374.11 337.85L379.99 332.59L391.17 344.23Z" fill="#E4897B"/>
<path d="M371.04 355.18H363.63L362.67 338.01H370.08L371.04 355.18Z" fill="#E4897B"/>
<path d="M374.12 337.85L379.88 343.85L385.76 338.59L380 332.59L374.12 337.85Z" fill="#CE6F64"/>
<path d="M370.08 338.02H362.67L363.17 346.87H370.58L370.08 338.02Z" fill="#CE6F64"/>
<path d="M337.48 166.61C337.48 166.61 329.67 220.67 327.01 250.09C324.87 273.7 375.92 344.09 375.92 344.09L385.79 334.8C385.79 334.8 348.51 271.69 351.38 245.41C354.16 219.96 363.58 166.58 363.58 166.58L337.48 166.61Z" fill="#852427"/>
<path opacity="0.7" d="M337.48 166.61C337.48 166.61 329.67 220.67 327.01 250.09C324.87 273.7 375.92 344.09 375.92 344.09L385.79 334.8C385.79 334.8 348.51 271.69 351.38 245.41C354.16 219.96 363.58 166.58 363.58 166.58L337.48 166.61Z" fill="black"/>
<path opacity="0.2" d="M351.38 245.44C352.81 232.33 356.01 211.79 358.76 194.97C357.32 192.15 353.28 186.44 353.28 186.44C349.66 198.95 341.79 246.11 353.02 309.8C364.72 328.66 375.92 344.12 375.92 344.12L377.45 319.8C366.64 299.46 349.39 263.61 351.38 245.44Z" fill="black"/>
<path d="M351.58 166.61C351.58 166.61 350.88 223.26 352.08 244.49C353.39 267.73 359.99 344.73 359.99 344.73H373.57C373.57 344.73 373.16 269.61 373.96 246.61C374.85 221.61 377.15 166.61 377.15 166.61H351.58Z" fill="#852427"/>
<path opacity="0.7" d="M351.58 166.61C351.58 166.61 350.88 223.26 352.08 244.49C353.39 267.73 359.99 344.73 359.99 344.73H373.57C373.57 344.73 373.16 269.61 373.96 246.61C374.85 221.61 377.15 166.61 377.15 166.61H351.58Z" fill="black"/>
<path d="M363.24 354.33H371.57C371.709 354.325 371.844 354.374 371.947 354.468C372.05 354.561 372.112 354.692 372.12 354.83L372.53 361.42C372.531 361.593 372.499 361.763 372.434 361.923C372.369 362.082 372.274 362.227 372.153 362.35C372.033 362.472 371.889 362.57 371.731 362.637C371.572 362.704 371.402 362.739 371.23 362.74C368.33 362.69 366.94 362.52 363.28 362.52C361.03 362.52 351.45 362.76 348.34 362.76C345.23 362.76 345.34 359.68 346.63 359.4C352.54 358.15 359.87 356.401 361.97 354.781C362.332 354.494 362.779 354.336 363.24 354.33Z" fill="#263238"/>
<path d="M383.68 347.39L390.82 342.58C390.936 342.488 391.081 342.438 391.23 342.438C391.379 342.438 391.523 342.488 391.64 342.58L397.1 348.09C397.206 348.211 397.285 348.354 397.33 348.509C397.375 348.664 397.386 348.827 397.361 348.986C397.336 349.146 397.277 349.297 397.187 349.431C397.097 349.565 396.978 349.677 396.84 349.76C392.28 353.27 388.99 355.92 386.39 358.84C383.39 362.25 381.77 362.74 374.77 362.74C371.53 362.74 369.7 360.01 371.02 359.59C382.68 355.9 379.56 354.29 382.4 348.88C382.696 348.285 383.136 347.773 383.68 347.39Z" fill="#263238"/>
<path d="M294.07 174.17L286.34 174.44L287.96 180.5C287.96 180.5 296.04 181.22 296.76 178.78L294.07 174.17Z" fill="#E4897B"/>
<path d="M278 178.05L283.42 181.21L287.96 180.5L286.34 174.44L278 178.05Z" fill="#E4897B"/>
<path opacity="0.31" d="M372.83 109.23C372.01 113.95 373.1 125.23 377.15 138.29C377.467 127.101 378.769 115.961 381.04 105V104.94C378.44 104.68 373.62 104.8 372.83 109.23Z" fill="#852427"/>
<path d="M367.46 81.4902C366.21 86.9102 364.8 96.8502 368.46 100.49C368.46 100.49 366.88 104.98 356.8 104.98C345.72 104.98 351.61 100.49 351.61 100.49C357.71 99.0502 357.71 94.5602 356.8 90.3502L367.46 81.4902Z" fill="#E4897B"/>
<path d="M356.52 104.96L353.52 108.15L354.99 111.23L357.38 111.34L359.42 108.4L356.52 104.96Z" fill="#852427"/>
<path d="M363.12 85.1001L356.81 90.3201C357.037 91.3059 357.178 92.3098 357.23 93.3201C359.55 92.9901 362.81 90.4501 363.14 88.0301C363.317 87.0608 363.31 86.0669 363.12 85.1001Z" fill="#CE6F64"/>
<path d="M354.31 63.1101C350.52 64.4001 347.49 74.4501 351.91 77.1101C356.33 79.7701 361.51 60.6601 354.31 63.1101Z" fill="#263238"/>
<path d="M369.83 75.8099C367.57 82.8099 366.61 87.0399 362.05 89.9099C360.579 90.8553 358.877 91.3806 357.129 91.4288C355.381 91.477 353.653 91.0464 352.132 90.1835C350.612 89.3205 349.356 88.0582 348.5 86.5329C347.645 85.0077 347.223 83.2776 347.28 81.5299C347.37 74.7999 351.05 64.4399 358.8 63.1399C360.47 62.8174 362.196 62.9395 363.804 63.4938C365.413 64.0481 366.847 65.0152 367.964 66.2982C369.081 67.5813 369.841 69.1353 370.169 70.8046C370.496 72.4739 370.379 74.1999 369.83 75.8099Z" fill="#E4897B"/>
<path d="M375.43 64.11C373.17 69.57 378.43 65.01 377.07 71.49C376.19 75.71 368.57 85.82 365.63 84.9C362.69 83.98 362.72 76.81 366.47 71.74C368.63 68.83 363.96 65.53 353.47 65.88C342.98 66.23 336.64 60.33 350.58 56C350.58 56 345.44 59 348.49 60C352.81 61.61 379.96 53.17 375.43 64.11Z" fill="#263238"/>
<path d="M373.43 66.6099C373.32 66.6099 375.78 65.9999 377.09 61.6099C377.09 61.6799 376.66 68.1499 373.43 66.6099Z" fill="#263238"/>
<path d="M353.8 56.9702C347.35 58.9702 350.02 61.2202 352.69 61.7802L358.81 59.3802C349.51 60.6102 353.8 56.9702 353.8 56.9702Z" fill="#263238"/>
<path d="M371.07 84.36C369.729 85.6634 367.94 86.4041 366.07 86.43C363.6 86.43 363.07 84.09 364.4 82.13C365.58 80.37 368.28 78.25 370.46 79.2C372.64 80.15 372.71 82.75 371.07 84.36Z" fill="#E4897B"/>
<path d="M358.44 75.4202C358.29 76.0002 357.86 76.4202 357.44 76.3202C357.02 76.2202 356.87 75.6902 357.02 75.1102C357.17 74.5302 357.6 74.1102 358.02 74.2202C358.44 74.3302 358.59 74.8402 358.44 75.4202Z" fill="#263238"/>
<path d="M351.84 73.9701C351.69 74.5501 351.26 74.9701 350.84 74.8701C350.42 74.7701 350.27 74.2501 350.42 73.6701C350.57 73.0901 350.99 72.6701 351.42 72.7701C351.85 72.8701 351.96 73.3901 351.84 73.9701Z" fill="#263238"/>
<path d="M353.86 74.7202C352.723 76.3393 351.378 77.8018 349.86 79.0702C350.194 79.4413 350.605 79.7348 351.065 79.93C351.524 80.1252 352.021 80.2174 352.52 80.2002L353.86 74.7202Z" fill="#DE5753"/>
<path d="M354.96 82.3098C354.546 82.3093 354.133 82.2623 353.73 82.1698C353.685 82.1579 353.647 82.1296 353.623 82.0906C353.599 82.0516 353.591 82.0048 353.6 81.9598C353.612 81.9154 353.64 81.8772 353.679 81.8531C353.718 81.8289 353.765 81.8206 353.81 81.8298C354.546 81.9938 355.31 81.989 356.044 81.8158C356.779 81.6426 357.464 81.3055 358.05 80.8298C358.083 80.7974 358.128 80.7793 358.175 80.7793C358.221 80.7793 358.266 80.7974 358.3 80.8298C358.332 80.8633 358.35 80.9081 358.35 80.9548C358.35 81.0014 358.332 81.0462 358.3 81.0798C357.371 81.8791 356.185 82.316 354.96 82.3098Z" fill="#263238"/>
<path d="M361.06 73.7498C360.992 73.751 360.925 73.7316 360.868 73.6941C360.811 73.6567 360.766 73.6029 360.74 73.5398C360.576 73.1386 360.318 72.7829 359.987 72.5027C359.656 72.2224 359.263 72.026 358.84 71.9298C358.794 71.9237 358.75 71.9084 358.709 71.8849C358.669 71.8614 358.634 71.8301 358.606 71.7928C358.578 71.7556 358.558 71.7132 358.547 71.668C358.535 71.6228 358.533 71.5758 358.54 71.5298C358.555 71.4377 358.605 71.355 358.68 71.2991C358.754 71.2431 358.848 71.2183 358.94 71.2298C359.479 71.3396 359.983 71.5792 360.408 71.9277C360.833 72.2762 361.167 72.7232 361.38 73.2298C361.4 73.2717 361.411 73.3171 361.412 73.3633C361.414 73.4095 361.406 73.4555 361.389 73.4986C361.372 73.5416 361.347 73.5808 361.314 73.6137C361.282 73.6466 361.243 73.6725 361.2 73.6898C361.158 73.7199 361.111 73.7403 361.06 73.7498Z" fill="#263238"/>
<path d="M349.61 71.0998C349.53 71.0992 349.452 71.0709 349.39 71.0198C349.318 70.9594 349.273 70.8734 349.264 70.78C349.254 70.6865 349.282 70.5932 349.34 70.5198C349.692 70.0814 350.141 69.7299 350.651 69.4924C351.16 69.2548 351.718 69.1376 352.28 69.1498C352.326 69.1536 352.371 69.1664 352.412 69.1876C352.453 69.2088 352.49 69.2378 352.519 69.2732C352.549 69.3085 352.571 69.3493 352.585 69.3934C352.599 69.4374 352.604 69.4838 352.6 69.5298C352.598 69.5763 352.586 69.6218 352.565 69.6635C352.544 69.7053 352.515 69.7423 352.48 69.7723C352.444 69.8023 352.403 69.8246 352.358 69.838C352.313 69.8513 352.266 69.8553 352.22 69.8498C351.77 69.8451 351.326 69.9436 350.92 70.1377C350.514 70.3319 350.159 70.6166 349.88 70.9698C349.848 71.0106 349.807 71.0436 349.76 71.0661C349.713 71.0887 349.662 71.1002 349.61 71.0998Z" fill="#263238"/>
<path d="M383.61 107.26C384.39 108.47 385.04 109.54 385.7 110.7C386.36 111.86 386.99 112.98 387.61 114.14C388.83 116.45 389.98 118.81 391.03 121.22C393.232 126.154 394.886 131.315 395.96 136.61L396.06 137.12L396.11 137.37L396.18 137.79C396.265 138.349 396.308 138.914 396.31 139.48C396.3 140.427 396.199 141.371 396.01 142.3C395.671 143.831 395.182 145.325 394.55 146.76C393.427 149.274 392.089 151.686 390.55 153.97C387.641 158.312 384.333 162.373 380.67 166.1L376.32 162.61C378.74 158.39 381.15 154.01 383.17 149.72C384.163 147.668 385.012 145.55 385.71 143.38C385.995 142.475 386.19 141.543 386.29 140.6C386.325 140.291 386.325 139.979 386.29 139.67C386.29 139.58 386.29 139.5 386.23 139.49C386.17 139.48 386.23 139.49 386.23 139.44L386.17 139.24L386.05 138.83C385.418 136.624 384.667 134.454 383.8 132.33C382.92 130.16 381.94 128 380.91 125.85C379.88 123.7 378.77 121.58 377.63 119.46C377.07 118.4 376.48 117.35 375.89 116.31L374.13 113.31L383.61 107.26Z" fill="#E4897B"/>
<path d="M360.62 355.61C360.121 355.66 359.621 355.521 359.22 355.22C359.107 355.095 359.028 354.943 358.989 354.778C358.951 354.614 358.955 354.443 359 354.28C359.022 354.171 359.071 354.069 359.143 353.983C359.215 353.897 359.306 353.831 359.41 353.79C360.32 353.43 362.41 354.87 362.65 355.03C362.68 355.048 362.703 355.076 362.715 355.108C362.728 355.141 362.73 355.176 362.72 355.21C362.715 355.244 362.7 355.275 362.677 355.3C362.653 355.325 362.623 355.342 362.59 355.35C361.944 355.505 361.284 355.592 360.62 355.61ZM359.75 354.08C359.681 354.069 359.61 354.069 359.54 354.08C359.489 354.098 359.444 354.13 359.411 354.173C359.377 354.215 359.356 354.266 359.35 354.32C359.314 354.425 359.306 354.537 359.327 354.646C359.348 354.755 359.397 354.856 359.47 354.94C359.81 355.28 360.78 355.32 362.11 355.06C361.403 354.57 360.598 354.239 359.75 354.09V354.08Z" fill="white"/>
<path d="M362.55 355.36H362.46C361.72 354.92 360.62 353.36 360.79 352.56C360.819 352.413 360.898 352.281 361.012 352.185C361.127 352.088 361.271 352.034 361.42 352.03C361.552 352.013 361.686 352.025 361.812 352.067C361.939 352.109 362.054 352.178 362.15 352.27C362.9 353 362.73 355.13 362.73 355.22C362.726 355.25 362.715 355.278 362.698 355.303C362.68 355.327 362.657 355.347 362.63 355.36H362.55ZM361.55 352.36H361.47C361.22 352.36 361.16 352.51 361.14 352.61C361.03 353.14 361.76 354.31 362.4 354.85C362.492 354.039 362.324 353.219 361.92 352.51C361.87 352.461 361.81 352.422 361.745 352.397C361.68 352.371 361.61 352.358 361.54 352.36H361.55Z" fill="white"/>
<path d="M378.88 351.41C378.695 351.415 378.511 351.381 378.34 351.31C378.208 351.257 378.091 351.173 377.999 351.065C377.906 350.957 377.842 350.828 377.81 350.69C377.784 350.605 377.781 350.516 377.8 350.43C377.82 350.344 377.861 350.265 377.92 350.2C378.59 349.39 382.1 349.63 382.5 349.66C382.537 349.661 382.573 349.674 382.602 349.698C382.631 349.721 382.651 349.754 382.66 349.79C382.668 349.826 382.664 349.863 382.65 349.897C382.636 349.931 382.611 349.96 382.58 349.98C381.463 350.716 380.201 351.203 378.88 351.41ZM381 349.95C379.77 349.95 378.48 350.07 378.19 350.42C378.173 350.447 378.164 350.478 378.164 350.51C378.164 350.542 378.173 350.573 378.19 350.6C378.207 350.686 378.245 350.767 378.301 350.835C378.356 350.903 378.428 350.956 378.51 350.99C379.07 351.22 380.33 350.84 381.92 349.99L381 349.95Z" fill="white"/>
<path d="M382.49 350.01C381.49 350.01 379.24 349.24 379.07 348.44C379.07 348.24 379.07 347.96 379.55 347.73C381.27 346.92 382.6 349.64 382.66 349.73C382.672 349.758 382.678 349.789 382.678 349.82C382.678 349.85 382.672 349.881 382.66 349.91C382.643 349.94 382.619 349.966 382.589 349.983C382.559 350.001 382.525 350.01 382.49 350.01ZM380.18 347.94C380.01 347.938 379.842 347.975 379.69 348.05C379.48 348.15 379.38 348.26 379.4 348.36C379.5 348.83 381.12 349.49 382.18 349.63C381.86 349.09 381.09 347.94 380.18 347.94Z" fill="white"/>
<path d="M378.3 160.99L370.96 159.7L374.75 168.25C374.75 168.25 381.48 168.25 381.18 164.73L378.3 160.99Z" fill="#E4897B"/>
<path d="M365.41 163.99L368.88 170.9L374.71 168.24L370.92 159.7L365.41 163.99Z" fill="#E4897B"/>
<path d="M386.39 334.26L375.32 344.69L371.75 340.86L384.42 329.32L386.39 334.26Z" fill="#852427"/>
<path opacity="0.6" d="M386.39 334.26L375.32 344.69L371.75 340.86L384.42 329.32L386.39 334.26Z" fill="white"/>
<path d="M374.11 344.73H359.44L358.63 339.58L374.82 340.38L374.11 344.73Z" fill="#852427"/>
<path opacity="0.6" d="M374.11 344.73H359.44L358.63 339.58L374.82 340.38L374.11 344.73Z" fill="white"/>
<path d="M381.69 102.15C388.69 103.15 395.86 127.47 395.86 127.47L380.86 135.79C380.86 135.79 374.77 124.23 371.86 115.65C368.81 106.66 374.2 101.05 381.69 102.15Z" fill="#852427"/>
<path opacity="0.7" d="M381.69 102.15C388.69 103.15 395.86 127.47 395.86 127.47L380.86 135.79C380.86 135.79 374.77 124.23 371.86 115.65C368.81 106.66 374.2 101.05 381.69 102.15Z" fill="white"/>
<path opacity="0.2" d="M356.52 104.96L353.52 108.15L354.99 111.23L357.38 111.34L359.42 108.4L356.52 104.96Z" fill="black"/>
<path d="M355.25 110.68C355.25 110.68 349.56 134.25 349.34 139.15C349.03 145.89 351.85 157.4 351.85 157.4C351.85 157.4 355.85 147.83 356.67 138.94C357.49 130.05 356.88 115.67 357.25 110.68H355.25Z" fill="#852427"/>
<path opacity="0.2" d="M355.25 110.68C355.25 110.68 349.56 134.25 349.34 139.15C349.03 145.89 351.85 157.4 351.85 157.4C351.85 157.4 355.85 147.83 356.67 138.94C357.49 130.05 356.88 115.67 357.25 110.68H355.25Z" fill="black"/>
<path d="M356.52 104.96C357.66 106.805 358.32 108.905 358.44 111.07C358.44 111.07 370.92 106.67 370.33 100.22C370.33 100.22 368.56 99.1698 367.44 98.3198C367.44 98.3198 367.02 102.38 356.52 104.96Z" fill="#852427"/>
<path opacity="0.6" d="M356.52 104.96C357.66 106.805 358.32 108.905 358.44 111.07C358.44 111.07 370.92 106.67 370.33 100.22C370.33 100.22 368.56 99.1698 367.44 98.3198C367.44 98.3198 367.02 102.38 356.52 104.96Z" fill="white"/>
<path d="M356.52 104.96C355.373 106.707 354.546 108.644 354.08 110.68C354.08 110.68 348.43 106.86 350.13 100.49C351.165 100.073 352.232 99.7386 353.32 99.4902C353.32 99.4902 352.58 103.61 356.52 104.96Z" fill="#852427"/>
<path opacity="0.6" d="M356.52 104.96C355.373 106.707 354.546 108.644 354.08 110.68C354.08 110.68 348.43 106.86 350.13 100.49C351.165 100.073 352.232 99.7386 353.32 99.4902C353.32 99.4902 352.58 103.61 356.52 104.96Z" fill="white"/>
<path d="M123.504 156.842V146.387C123.494 143.795 122.543 141.313 120.858 139.484C119.173 137.655 116.891 136.628 114.513 136.628V147.084C114.522 149.676 115.473 152.158 117.158 153.987C118.843 155.816 121.125 156.842 123.504 156.842Z" fill="#263238"/>
<path d="M129.414 222.943L129.587 226.45L129.76 229.957L131.222 230.759L129.414 222.943Z" fill="#852427"/>
<path opacity="0.2" d="M129.414 222.943L129.587 226.45L129.76 229.957L131.222 230.759L129.414 222.943Z" fill="black"/>
<path d="M110.818 138.985H107.434C102.844 138.985 98.4421 136.999 95.1965 133.462C91.9508 129.926 90.1274 125.13 90.1274 120.129C90.1274 114.791 92.0739 109.671 95.5386 105.896C99.0033 102.121 103.703 100 108.602 100H109.684C114.575 100.01 119.263 102.133 122.719 105.902C126.176 109.672 128.12 114.781 128.124 120.11C128.127 122.588 127.681 125.042 126.812 127.332C125.943 129.622 124.669 131.703 123.061 133.456C121.454 135.209 119.546 136.599 117.445 137.548C115.344 138.497 113.092 138.985 110.818 138.985Z" fill="#263238"/>
<path d="M92.5244 105.299C93.1711 105.44 93.74 105.855 94.1066 106.452C94.4731 107.049 94.6075 107.781 94.4801 108.486L89.5996 107.401C89.735 106.702 90.1181 106.089 90.6656 105.695C91.2132 105.302 91.8811 105.159 92.5244 105.299Z" fill="#263238"/>
<path d="M95.7087 104.148C95.81 104.486 95.8492 104.843 95.824 105.197C95.7988 105.552 95.7097 105.898 95.5618 106.214C95.4139 106.531 95.2102 106.814 94.9622 107.045C94.7142 107.276 94.4268 107.451 94.1165 107.561L92.5762 102.404C92.8869 102.294 93.2146 102.252 93.5404 102.28C93.8662 102.308 94.1837 102.406 94.4747 102.568C94.7658 102.73 95.0246 102.953 95.2363 103.224C95.448 103.495 95.6086 103.81 95.7087 104.148Z" fill="#263238"/>
<path d="M120.12 352.532C118.986 351.59 117.706 350.703 116.71 349.704C114.504 347.507 113.829 341.945 113.664 340.068C113.496 338.472 113.481 336.86 113.621 335.26C114.062 331.489 116.607 323.201 116.607 323.201C116.607 323.201 108.412 317.328 108.291 317.403C108.17 317.478 106.811 328.198 105.47 329.952C103.843 331.508 102.45 331.941 101.532 333.997C100.728 336.533 101.056 337.9 102.294 340.54C103.209 342.827 103.888 345.217 104.319 347.667C105.02 350.76 104.725 355.823 111.778 357.369C115.516 358.189 118.104 357.642 119.886 356.775C121.894 355.804 121.876 353.975 120.12 352.532Z" fill="#E4897B"/>
<path d="M101.532 334.007C100.728 336.543 101.056 337.91 102.294 340.55C103.209 342.837 103.888 345.228 104.319 347.678C105.02 350.77 104.725 355.833 111.778 357.38C115.516 358.2 118.104 357.653 119.886 356.786C121.894 355.843 121.876 353.957 120.12 352.533C119.254 351.798 118.251 351.091 117.394 350.337C118.329 352.166 113.837 352.599 111.25 350.912C108.663 349.224 105.435 337.335 105.115 334.677C104.921 333.096 105.042 331.488 105.47 329.962C105.565 329.821 105.686 329.614 105.686 329.614C105.686 329.614 105.409 329.491 105.115 329.736C103.62 330.822 102.391 332.288 101.532 334.007Z" fill="#263238"/>
<path d="M128.765 198.081C130.028 213.166 133.853 264.908 132.823 274.656C132.365 279.078 115.162 328.293 115.162 328.293C115.162 328.293 110.965 329.698 107.01 324.814C109.052 303.657 111.008 280.992 115.248 273.968C114.444 266.69 106.11 230.429 106.11 230.429L128.765 198.081Z" fill="#37474F"/>
<path d="M97.7252 345.142V343.812C98.2098 345.368 100.451 352.1 103.843 355.466C106.534 358.153 110.212 361.245 111.147 364.234C112.081 367.223 106.032 368.382 103.514 367.892C100.581 367.336 96.7993 365.525 94.7398 362.763C93.286 360.821 92.3601 358.52 91.3304 356.993C90.3006 355.466 87.869 353.769 87.3498 352.005C87.0383 351.063 87.4104 348.904 87.8344 347.112C88.2584 345.321 88.6998 343.652 89.1843 343.812V344.821C89.7987 345.576 91.5208 346.32 93.4505 346.396C94.7052 346.452 97.7425 346.179 97.7252 345.142Z" fill="#263238"/>
<path d="M106.283 357.822C105.418 357.011 104.604 356.219 103.843 355.455C101.472 353.108 99.6633 349.11 98.6509 346.386C98.071 344.829 97.777 343.163 97.7855 341.483V336.175H89.1841V344.811V345.037C89.5908 346.97 93.5108 352.118 95.7433 355.474C97.2404 357.728 100.07 360.584 103.471 361.084C106.724 361.584 108.369 360.481 106.283 357.822Z" fill="#E4897B"/>
<path d="M90.9147 200.391C84.2862 216.164 91.157 271.715 91.157 271.715C90.958 274.279 88.2668 279.314 87.2716 290.571C86.0861 303.874 89.1235 337.297 89.1235 337.297C90.4283 338.124 91.8995 338.59 93.4081 338.654C94.9167 338.719 96.4168 338.379 97.7768 337.664C97.7768 337.664 105.928 287.337 107.46 274.109C108.793 262.56 112.462 227.035 112.462 227.035L128.816 198.071L90.9147 200.391Z" fill="#37474F"/>
<path d="M105.011 145.397L96.1069 145.859C94.8867 146.273 91.6071 149.63 90.3177 154.768C89.3944 158.998 89.6016 163.428 90.9148 167.534L96.8337 186.192C96.8337 186.192 94.0647 193.499 90.8456 200.391C105.703 209.432 124.256 204.681 128.73 198.081C128.912 196.686 128.661 190.378 129.016 183.213C129.405 175.557 130.366 166.921 129.267 162.197C127.216 153.42 123.374 145.18 115.733 145.18L105.011 145.397Z" fill="#DABDBE"/>
<path d="M121.859 108.344C123.867 109.636 126.35 115.142 126.108 126.682C125.9 136.459 122.984 138.873 121.53 139.57C120.077 140.268 117.247 139.844 114.513 139.344V145.218C114.513 145.218 118.294 150.007 118.06 152.694C117.827 155.381 112.591 156.022 109.052 153.392C106.755 151.605 104.783 149.366 103.237 146.792V133.8C102.433 134.113 101.573 134.214 100.727 134.096C99.8802 133.978 99.0712 133.644 98.3653 133.121C95.3193 130.972 95.2415 125.494 96.9721 123.552C98.7028 121.61 102.519 122.222 103.229 124.909C103.229 124.909 107.598 125.079 113.414 121.6C115.679 120.27 117.625 118.377 119.093 116.074C120.56 113.77 121.508 111.122 121.859 108.344Z" fill="#E4897B"/>
<path d="M116.468 124.372C116.471 124.614 116.409 124.852 116.289 125.057C116.168 125.261 115.995 125.422 115.792 125.519C115.588 125.617 115.362 125.647 115.143 125.606C114.923 125.565 114.72 125.455 114.558 125.288C114.396 125.122 114.282 124.907 114.231 124.671C114.18 124.435 114.194 124.188 114.272 123.96C114.349 123.733 114.486 123.535 114.666 123.392C114.846 123.249 115.06 123.167 115.283 123.155C115.434 123.15 115.584 123.178 115.726 123.236C115.867 123.295 115.997 123.383 116.107 123.496C116.217 123.609 116.306 123.744 116.368 123.895C116.43 124.045 116.464 124.207 116.468 124.372Z" fill="#263238"/>
<path d="M116.382 132.536L118.978 133.479C118.931 133.674 118.849 133.856 118.735 134.015C118.621 134.174 118.479 134.305 118.317 134.402C118.155 134.498 117.976 134.557 117.792 134.575C117.608 134.593 117.422 134.57 117.247 134.507C116.897 134.364 116.611 134.079 116.45 133.711C116.288 133.344 116.264 132.923 116.382 132.536Z" fill="#263238"/>
<path d="M125.338 120.469L123.053 118.715C123.149 118.548 123.275 118.403 123.423 118.29C123.572 118.177 123.74 118.099 123.917 118.059C124.094 118.019 124.277 118.019 124.455 118.059C124.632 118.099 124.8 118.178 124.948 118.291C125.26 118.528 125.475 118.887 125.548 119.294C125.621 119.7 125.545 120.122 125.338 120.469Z" fill="#263238"/>
<path d="M125.009 124.165C125.012 124.407 124.949 124.646 124.829 124.85C124.709 125.054 124.536 125.215 124.332 125.313C124.128 125.41 123.903 125.441 123.683 125.4C123.464 125.358 123.26 125.248 123.098 125.082C122.936 124.915 122.822 124.701 122.772 124.464C122.721 124.228 122.735 123.981 122.812 123.753C122.89 123.526 123.027 123.328 123.207 123.185C123.386 123.042 123.601 122.96 123.823 122.949C124.128 122.941 124.423 123.064 124.645 123.292C124.867 123.519 124.997 123.833 125.009 124.165Z" fill="#263238"/>
<path d="M119.488 122.646L119.67 130.057L123.244 128.85L119.488 122.646Z" fill="#DE5753"/>
<path d="M114.513 139.362C111.622 138.957 105.686 137.09 104.76 134.535C105.131 135.83 105.859 136.969 106.846 137.797C108.576 139.457 114.513 141.323 114.513 141.323V139.362Z" fill="#E4897B"/>
<path d="M112.713 260.382L110.168 248.522L112.41 227.044C112.41 227.044 119.462 224.15 123.2 218.201C121.535 222.537 118.756 226.256 115.196 228.911L111.354 248.465L112.713 260.382Z" fill="#263238"/>
<path opacity="0.1" d="M105.928 282.369L109.018 231.457L105.928 237.293L99.7412 294.05L105.928 282.369Z" fill="black"/>
<path d="M79.6654 187.993L91.6676 169.693C93.5792 167.587 95.0184 165.028 95.8732 162.216C97.9673 154.985 98.2961 150.742 96.0982 145.858C91.2177 145.858 88.362 146.396 82.8152 156.625C78.2895 164.969 71.5659 179.196 69.9217 182.27C67.8709 186.041 67.2738 187.088 69.0564 190.821C70.839 194.555 77.554 204.143 83.2046 211.356C88.8553 218.568 92.1609 221.001 96.3837 222.066C100.607 223.131 102.493 222.236 104.873 219.85C107.252 217.465 105.574 215.344 103.358 214.788C101.257 214.293 99.253 213.396 97.4394 212.138C96.0982 211.082 95.7087 210.253 96.9289 210.196C98.5384 210.121 100.044 209.772 100.459 208.546C100.979 207.009 99.646 207.424 97.8029 206.802C95.4216 206.014 92.9707 205.502 90.4908 205.275C87.4534 205.454 79.6654 187.993 79.6654 187.993Z" fill="#E4897B"/>
<path d="M102.052 136.487H103.237V148.744C103.237 151.117 102.372 153.393 100.832 155.071C99.2921 156.749 97.2033 157.691 95.0254 157.691H93.8398V145.435C93.8398 143.062 94.705 140.786 96.2451 139.108C97.7852 137.43 99.8739 136.487 102.052 136.487Z" fill="#263238"/>
</g>
<defs>
<clipPath id="clip0_9_2">
<rect width="500" height="372.61" fill="white"/>
</clipPath>
</defs>
</svg>
