<svg width="227" height="39" viewBox="0 0 227 39" fill="none" xmlns="http://www.w3.org/2000/svg">
<path fill-rule="evenodd" clip-rule="evenodd" d="M170.182 0C178.45 0 185.516 5.14605 188.353 12.4101C191.188 5.14605 198.254 0 206.523 0C217.292 0 226.023 8.73045 226.023 19.5C226.023 30.2696 217.292 39 206.523 39C198.254 39 191.188 33.854 188.352 26.5899C185.516 33.854 178.45 39 170.182 39H154.054L143.416 19.5V39H132.068V0H143.416L154.054 19.5V0H170.182ZM170.907 12.4091H169.134V26.5909H170.907C174.823 26.5909 177.998 23.4162 177.998 19.5C177.998 15.5838 174.823 12.4091 170.907 12.4091ZM206.523 12.4091C202.607 12.4091 199.432 15.5838 199.432 19.5C199.432 23.4162 202.607 26.5909 206.523 26.5909C210.439 26.5909 213.614 23.4162 213.614 19.5C213.614 15.5838 210.439 12.4091 206.523 12.4091ZM99.2649 0L83.9189 26.7984L94.48 26.7987C93.5695 24.5443 93.0682 22.0807 93.0682 19.5C93.0682 8.73045 101.799 0 112.568 0C123.338 0 132.068 8.73045 132.068 19.5C132.068 30.2696 123.338 39 112.568 39C106.26 39 100.651 36.0043 97.0865 31.3578L97.0861 39H64.4673L78.8555 12.482H67.5395V0H99.2649ZM112.568 12.4091C108.652 12.4091 105.477 15.5838 105.477 19.5C105.477 23.4162 108.652 26.5909 112.568 26.5909C116.484 26.5909 119.659 23.4162 119.659 19.5C119.659 15.5838 116.484 12.4091 112.568 12.4091ZM22.8785 14.1262H13.0582V10.9481H23.9428V0H0V39H23.9428V27.872H13.0582V24.3888H22.8785V14.1262ZM39.6491 0H26.5909V39H48.7949V27.872H39.6491V0ZM64.4673 0H51.4091V39H64.4673V0Z" fill="url(#paint0_linear_24_3)"/>
<defs>
<linearGradient id="paint0_linear_24_3" x1="113.011" y1="39" x2="113.011" y2="0" gradientUnits="userSpaceOnUse">
<stop stop-color="#852427"/>
<stop offset="1" stop-color="#B01117"/>
</linearGradient>
</defs>
</svg>
