<?xml version="1.0" encoding="UTF-8"?>
<svg width="227px" height="39px" viewBox="0 0 227 39" version="1.1" xmlns="http://www.w3.org/2000/svg" xmlns:xlink="http://www.w3.org/1999/xlink">
    <title>Elements / logotipo / normal</title>
    <g id="✅-1.-Login" stroke="none" stroke-width="1" fill="none" fill-rule="evenodd">
        <g id="Login" transform="translate(-967.000000, -280.000000)" fill="#B01117">
            <g id="Elements-/-logotipo-/-normal" transform="translate(967.000000, 280.000000)">
                <path d="M170.181818,0 C178.450121,-4.24645163e-15 185.5165,5.14604933 188.35286,12.4100536 C191.188045,5.14604933 198.254424,0 206.522727,0 C217.29228,0 226.022727,8.73044738 226.022727,19.5 C226.022727,30.2695526 217.29228,39 206.522727,39 C198.254424,39 191.188045,33.8539507 188.351685,26.5899464 C185.5165,33.8539507 178.450121,39 170.181818,39 L154.054397,39 L143.416243,19.5 L143.416243,39 L132.068182,39 L132.068182,0 L143.416243,0 L154.054397,19.5 L154.054397,0 L170.181818,0 Z M170.907025,12.4090909 L169.134298,12.4090909 L169.134298,26.5909091 L170.907025,26.5909091 C174.823226,26.5909091 177.997934,23.416201 177.997934,19.5 C177.997934,15.583799 174.823226,12.4090909 170.907025,12.4090909 Z M206.522727,12.4090909 C202.606526,12.4090909 199.431818,15.583799 199.431818,19.5 C199.431818,23.416201 202.606526,26.5909091 206.522727,26.5909091 C210.438928,26.5909091 213.613636,23.416201 213.613636,19.5 C213.613636,15.583799 210.438928,12.4090909 206.522727,12.4090909 Z M99.2649382,0 L83.9188671,26.7984341 L94.4800444,26.7986869 C93.5694928,24.5442589 93.0681818,22.0806732 93.0681818,19.5 C93.0681818,8.73044738 101.798629,0 112.568182,0 C123.337734,0 132.068182,8.73044738 132.068182,19.5 C132.068182,30.2695526 123.337734,39 112.568182,39 C106.259631,39 100.650766,36.0042856 97.0865478,31.357816 L97.0861068,39 L64.4672778,39 L78.8554552,12.4820172 L67.5394827,12.4820172 L67.5394827,0 L99.2649382,0 Z M112.568182,12.4090909 C108.651981,12.4090909 105.477273,15.583799 105.477273,19.5 C105.477273,23.416201 108.651981,26.5909091 112.568182,26.5909091 C116.484383,26.5909091 119.659091,23.416201 119.659091,19.5 C119.659091,15.583799 116.484383,12.4090909 112.568182,12.4090909 Z M22.87854,14.12618 L13.0581868,14.12618 L13.0581868,10.9481201 L23.9428304,10.9481201 L23.9428304,0 L0,0 L0,39 L23.9428304,39 L23.9428304,27.8720296 L13.0581868,27.8720296 L13.0581868,24.3887533 L22.87854,24.3887533 L22.87854,14.12618 Z M39.6490959,0 L26.5909091,0 L26.5909091,39 L48.7949179,39 L48.7949179,27.8720296 L39.6490959,27.8720296 L39.6490959,0 Z M64.4672778,0 L51.4090909,0 L51.4090909,39 L64.4672778,39 L64.4672778,0 Z" id="Combined-Shape"></path>
            </g>
        </g>
    </g>
</svg>